HIERARCHY
ROOT Hips
{
	OFFSET	0.00	0.00	0.00
	CHANNELS 6 Xposition Yposition Zposition Zrotation Xrotation Yrotation
	JOINT Spine
	{
		OFFSET	 0.00	0.01	 0.00
		CHANNELS 3 Zrotation Xrotation Yrotation
		JOINT Spine1
		{
			OFFSET	 0.00	 2.45913012437421	 0.00
			CHANNELS 3 Zrotation Xrotation Yrotation
            JOINT Neck
            {
                OFFSET	 0.00	 2.48462964506057	 0.00
                CHANNELS 3 Zrotation Xrotation Yrotation
                JOINT Head
                {
                    OFFSET	 0.00	 0.927524780924562	 0.00
                    CHANNELS 3 Zrotation Xrotation Yrotation
                    End Site 
                    {
                        OFFSET	 0.00	 1.14999962169752	 0.00
                    }
                }
            }
			JOINT LeftShoulder
			{
				OFFSET	 0.00	 2.48462964506057	 0.00
				CHANNELS 3 Zrotation Xrotation Yrotation
				JOINT LeftUpArm
				{
					OFFSET	 0.00	 1.24881979654096	 0.00
					CHANNELS 3 Zrotation Xrotation Yrotation
					JOINT LeftForeArm
					{
						OFFSET	 0.00	2.59758046908119	 0.00
						CHANNELS 3 Zrotation Xrotation Yrotation
						JOINT LeftHand
						{
							OFFSET	 0.00	2.45542024364365	 0.00
							CHANNELS 3 Zrotation Xrotation Yrotation
							JOINT LeftHandThumb 
							{
								OFFSET	 0.00	0.00	 0.00
								CHANNELS 3 Zrotation Xrotation Yrotation
								End Site
								{
									OFFSET	 0.00	0.00	1.00000003353624
								}
							}
							JOINT L_Wrist_End 
							{
								OFFSET	 0.00	0.99999967115358	 0.00
								CHANNELS 3 Zrotation Xrotation Yrotation
								End Site 
								{
									OFFSET	 0.00	 0.00	 0.00
								}
							}
						}
					}
				}
			}
			JOINT RightShoulder
			{
				OFFSET	 0.00	 2.48462964506057	 0.00
				CHANNELS 3 Zrotation Xrotation Yrotation
				JOINT RightUpArm
				{
					OFFSET	 0.00	 1.24881979654096	 0.00
					CHANNELS 3 Zrotation Xrotation Yrotation
					JOINT RightForeArm
					{
						OFFSET	 0.00	2.59758046908119	 0.00
						CHANNELS 3 Zrotation Xrotation Yrotation
						JOINT RightHand
						{
							OFFSET	 0.00	2.45542024364365	 0.00
							CHANNELS 3 Zrotation Xrotation Yrotation
							JOINT RightHandThumb 
							{
								OFFSET	 0.00	0.00	 0.00
								CHANNELS 3 Zrotation Xrotation Yrotation
								End Site
								{
									OFFSET	 0.00	0.00	1.00000003353624
								}
							}
							JOINT R_Wrist_End 
							{
								OFFSET	 0.00	0.99999967115358	 0.00
								CHANNELS 3 Zrotation Xrotation Yrotation
								End Site 
								{
									OFFSET	 0.00	 0.00	 0.00
								}
							}
						}
					}
				}
			}
		}
	}
	JOINT LeftUpLeg
	{
		OFFSET	 1.2719394002717	 0.00	 0.00
		CHANNELS 3 Zrotation Xrotation Yrotation
		JOINT LeftLowLeg
		{
			OFFSET	 0.00	-4.3429100912261	 0.00
			CHANNELS 3 Zrotation Xrotation Yrotation
			JOINT LeftFoot
			{
				OFFSET	 0.00	-4.48767017425826	 0.00
				CHANNELS 3 Zrotation Xrotation Yrotation
				JOINT LeftToeBase
                {
                    OFFSET	 0.00	0.00	 1.51507020887566
                    CHANNELS 3 Zrotation Xrotation Yrotation
                    End Site 
                    {
                        OFFSET	 0.00	0.00	 0.75000010571191
                    }
                }
			}
		}
	}
	JOINT RightUpLeg
	{
		OFFSET	 -1.2719393604653	 0.00	 0.00
		CHANNELS 3 Zrotation Xrotation Yrotation
		JOINT RightLowLeg
		{
			OFFSET	 0.00	-4.3429100912261	 0.00
			CHANNELS 3 Zrotation Xrotation Yrotation
			JOINT RightFoot
			{
				OFFSET	 0.00	-4.48767017425826	 0.00
				CHANNELS 3 Zrotation Xrotation Yrotation
				JOINT RightToeBase
                {
                    OFFSET	 0.00	0.00	 1.51507020887566
                    CHANNELS 3 Zrotation Xrotation Yrotation
                    End Site 
                    {
                        OFFSET	 0.00	0.00	 0.749999965609858
                    }
                }   
			}
		}
	}
}
MOTION 
Frames:	11 
Frame Time: 0.02 
 -0.8067430114746094 19.98780029296875 10.418699951171876 -136.115 84.4906 95.4795 5.3435 -22.6596 -3.44258 -2.23044 33.9685 2.77619 -9.894 38.4308 10.1677 17.8058 -53.2042 15.8625 -119.668396 2.55476 -8.5639 -35.5784 -2.57498 35.4273 0.0 30.095 0.0 9.70781 -6.48032 -0.0167568 0.0 0.0 0.0 0.0 0.0 0.0 119.1612 0.0180514 4.12517 40.2883 2.56158 -23.2538 0.0 25.294 0.0 -4.26287 -2.21714 10.5651 0.0 0.0 0.0 0.0 0.0 0.0 4.93354 11.2662 19.304 0.0 -0.823447 0.0 -6.8999 7.47708 5.60296 0.0 -11.08512 0.0 8.52989 5.5059 17.204 0.0 5.52364 0.0 15.4633 9.21376 -22.6926 0.0 -10.79049 0.0 
  -0.806239013671875 19.99030029296875 10.4177001953125 -136.161 84.4606 95.403 5.34565 -22.6016 -3.41718 -2.18952 33.9627 2.82747 -9.89968 38.4125 10.1691 17.8226 -53.2675 15.8834 -119.6746 2.61846 -8.62988 -35.5844 -2.58197 35.4677 0.0 30.0221 0.0 9.63659 -6.53697 0.132545 0.0 0.0 0.0 0.0 0.0 0.0 119.1882 -0.0120131 4.14893 40.2091 2.55954 -23.4036 0.0 25.4739 0.0 -4.44378 -2.36666 10.6835 0.0 0.0 0.0 0.0 0.0 0.0 4.95744 11.3029 19.1953 0.0 -0.86386 0.0 -6.9323 7.43904 5.74055 0.0 -11.10454 0.0 8.58909 5.36962 17.4284 0.0 5.77586 0.0 15.5416 9.08028 -22.7172 0.0 -10.79118 0.0 
  -0.806885986328125 19.98989990234375 10.4168994140625 -136.13 84.4509 95.3332 5.33911 -22.5834 -3.42772 -2.17486 33.9759 2.82636 -10.0733 38.3779 10.4054 17.8464 -53.3064 15.8615 -119.7001 2.62932 -8.61607 -35.5363 -2.57214 35.4453 0.0 30.0708 0.0 9.59858 -6.58549 0.208943 0.0 0.0 0.0 0.0 0.0 0.0 119.1653 -0.0200499 4.15819 40.2296 2.57473 -23.4106 0.0 25.4904 0.0 -4.45787 -2.30351 10.6828 0.0 0.0 0.0 0.0 0.0 0.0 4.96888 11.3485 19.0765 0.0 -0.908088 0.0 -7.00782 7.41516 5.80926 0.0 -11.12887 0.0 8.63817 5.23336 17.59 0.0 6.08368 0.0 15.6269 8.91807 -22.7438 0.0 -10.8229 0.0 
  -0.8078839874267578 19.991400146484374 10.416300048828125 -135.841 84.4539 95.0805 5.26 -22.5174 -3.50893 -2.12932 33.9797 2.81382 -9.89981 38.3856 10.1757 17.8262 -53.3539 15.9659 -119.747696 2.70663 -8.61954 -35.4398 -2.59183 35.4608 0.0 30.0738 0.0 9.74319 -6.47128 0.143557 0.0 0.0 0.0 0.0 0.0 0.0 119.2091 -0.0484016 4.16585 40.1733 2.5959 -23.4365 0.0 25.5755 0.0 -4.48591 -2.25577 10.5845 0.0 0.0 0.0 0.0 0.0 0.0 4.99667 11.3916 18.7027 0.0 -0.948299 0.0 -7.10399 7.3795 6.03965 0.0 -11.11452 0.0 8.73057 5.08572 18.2367 0.0 6.48235 0.0 15.8894 8.54679 -23.2358 0.0 -10.79799 0.0 
  -0.8117440032958985 19.99260009765625 10.416099853515625 -135.928 84.3885 95.1522 5.1723 -22.5485 -3.66723 -1.99519 34.0981 2.76232 -9.99169 38.2618 10.288 17.7203 -53.383 15.9066 -119.7492 2.67967 -8.73368 -35.4647 -2.60804 35.5072 0.0 30.0522 0.0 9.73386 -6.47055 0.0164795 0.0 0.0 0.0 0.0 0.0 0.0 119.0962 0.0032246 4.1647 40.2506 2.62326 -23.3867 0.0 25.6639 0.0 -4.51473 -2.27561 10.7714 0.0 0.0 0.0 0.0 0.0 0.0 5.08746 11.4526 18.4842 0.0 -1.05141 0.0 -7.19644 7.36476 6.14548 0.0 -11.09036 0.0 8.80999 4.97526 17.6349 0.0 6.64893 0.0 15.7547 8.73532 -22.6778 0.0 -10.89856 0.0 
  -0.8158789825439453 19.99949951171875 10.416500244140625 -136.428 84.2885 95.6358 5.29608 -22.5933 -3.59917 -2.23385 34.2389 2.60699 -9.89064 38.073 10.333 17.8756 -53.3627 16.1487 -119.5661 2.61849 -8.90635 -35.3841 -2.61294 35.5158 0.0 30.0798 0.0 9.75239 -6.43574 -0.67193 0.0 0.0 0.0 0.0 0.0 0.0 119.2849 0.160612 4.17883 40.2738 2.65772 -23.3605 0.0 25.7396 0.0 -4.49997 -2.249 10.7634 0.0 0.0 0.0 0.0 0.0 0.0 5.24234 11.42 18.2249 0.0 -1.09436 0.0 -7.33018 7.31371 6.27537 0.0 -11.05152 0.0 8.99004 4.76682 17.7919 0.0 6.9172 0.0 15.7926 8.73679 -22.7892 0.0 -10.98101 0.0 
  -0.8231520080566406 20.001199951171873 10.415400390625 -136.383 84.2615 95.6945 5.09738 -22.5418 -3.80754 -2.04882 34.2475 2.6201 -9.81977 38.1382 10.162 17.8347 -53.4906 16.1618 -119.6009 2.62154 -8.66536 -35.3609 -2.39452 35.5276 0.0 29.9943 0.0 9.62276 -6.48895 0.330693 0.0 0.0 0.0 0.0 0.0 0.0 119.2311 -0.0139914 4.19091 40.3229 2.74265 -23.384 0.0 25.8026 0.0 -4.54379 -2.18192 10.9197 0.0 0.0 0.0 0.0 0.0 0.0 5.3368 11.488 17.8593 0.0 -1.21259 0.0 -7.46349 7.29856 6.38837 0.0 -10.92952 0.0 9.12702 4.63061 18.2335 0.0 7.26753 0.0 16.0508 8.44363 -23.137 0.0 -11.03543 0.0 
  -0.8288249969482422 20.014100341796876 10.41739990234375 -136.761 84.1849 96.3866 5.27426 -22.742 -3.91412 -2.74554 34.6938 1.92323 -9.98473 37.5917 10.8683 18.1436 -53.1468 16.4575 -118.9863 2.26774 -9.34407 -35.4015 -2.57134 35.5469 0.0 30.0231 0.0 9.60667 -6.61833 0.842345 0.0 0.0 0.0 0.0 0.0 0.0 119.5289 0.855898 4.07796 40.5216 2.63757 -23.1605 0.0 25.9704 0.0 -4.41677 -2.45142 10.9374 0.0 0.0 0.0 0.0 0.0 0.0 5.57766 11.3038 17.0484 0.0 -1.14329 0.0 -7.54985 7.24662 6.76732 0.0 -10.91008 0.0 9.34385 4.35249 17.7381 0.0 7.63467 0.0 15.8603 8.66397 -22.9601 0.0 -11.40014 0.0 
  -0.8382009887695312 20.018699951171875 10.4168994140625 -137.218 84.1281 96.9864 5.25559 -22.7039 -3.86374 -2.89276 34.6992 1.93482 -9.43068 37.6338 10.2781 18.394 -53.2923 16.9991 -118.8091 2.34566 -9.15802 -35.3292 -2.42569 35.4678 0.0 30.0305 0.0 10.0529 -6.46073 -1.17156 0.0 0.0 0.0 0.0 0.0 0.0 119.6938 0.691689 4.16586 40.5606 2.55945 -23.3137 0.0 26.0861 0.0 -4.53171 -2.28775 10.6393 0.0 0.0 0.0 0.0 0.0 0.0 5.71092 11.3076 16.7829 0.0 -1.28986 0.0 -7.64273 7.28037 6.80325 0.0 -10.961309 0.0 9.46893 4.21833 17.3058 0.0 7.7977 0.0 15.7586 8.7510605 -22.6941 0.0 -11.50156 0.0 
  -0.8498930358886718 20.026600341796875 10.416600341796874 -137.735 84.0922 97.6389 5.04784 -22.7297 -4.07792 -2.8771 34.8744 1.88231 -9.33279 37.4232 10.2654 18.4736 -53.3075 17.1367 -118.6494 2.32532 -9.30168 -35.3418 -2.45879 35.4539 0.0 30.0391 0.0 9.78514 -6.585 -0.040804 0.0 0.0 0.0 0.0 0.0 0.0 119.7093 0.753698 4.08494 40.6448 2.61333 -23.3957 0.0 26.244 0.0 -4.70892 -2.4443 10.7094 0.0 0.0 0.0 0.0 0.0 0.0 5.84669 11.3061 16.7431 0.0 -1.43165 0.0 -7.76084 7.3572 6.59553 0.0 -10.82815 0.0 9.60896 4.04761 17.0609 0.0 8.03007 0.0 15.6956 8.76593 -22.5571 0.0 -11.63046 0.0 
  -0.8647219848632812 20.03530029296875 10.415899658203125 -138.329 84.0529 98.484 4.61871 -22.7493 -4.53601 -2.54847 35.0344 1.89423 -9.4256 37.3096 10.3231 18.428 -53.4547 17.03 -118.711 2.34702 -9.32112 -35.2499 -2.40425 35.4537 0.0 30.0763 0.0 9.74857 -6.61744 0.128935 0.0 0.0 0.0 0.0 0.0 0.0 119.536896 0.704551 4.13212 40.7777 2.61992 -23.5742 0.0 26.3491 0.0 -4.74694 -2.23878 10.862 0.0 0.0 0.0 0.0 0.0 0.0 6.01779 11.2572 16.5001 0.0 -1.55531 0.0 -7.84351 7.41763 6.52631 0.0 -10.806311 0.0 9.77208 3.87049 16.5784 0.0 8.25889 0.0 15.5412 8.81608 -22.3521 0.0 -11.7552395 0.0 
